<?xml version="1.0" encoding="iso-8859-1"?>
<!-- Generator: Adobe Illustrator 19.0.0, SVG Export Plug-In . SVG Version: 6.00 Build 0)  -->
<svg version="1.1" id="Capa_1" xmlns="http://www.w3.org/2000/svg" xmlns:xlink="http://www.w3.org/1999/xlink" x="0px" y="0px"
	 viewBox="0 0 433.721 433.721" style="enable-background:new 0 0 433.721 433.721;" xml:space="preserve">
<polygon style="fill:#FDC75B;" points="354.9,240.321 276.1,291.321 178.3,354.521 138.1,380.421 138.1,380.321 60.6,302.821 
	60.5,302.721 200.6,86.021 "/>
<polygon style="fill:#ED664C;" points="138.1,380.421 137.8,380.621 96,422.521 18.5,344.921 60.3,303.221 60.5,302.721 
	60.6,302.821 138.1,380.321 "/>
<path d="M189.2,62.421c-3.9-3.9-10.2-3.9-14.1,0c-3.9,3.9-3.9,10.2,0,14.1l11.8,11.8l-135.5,209.6l-41,41c-1.9,1.9-2.9,4.4-2.9,7.1
	s1.1,5.2,2.9,7.1l77.5,77.6c1.9,1.9,4.4,3,7.1,3l0,0c2.7,0,5.2-1.2,7.1-3.1l41.1-41.2l32.2-20.8l44.8,44.7c2,2,4.5,2.9,7.1,2.9
	s5.1-1,7.1-2.9l80.5-80.6c3.9-3.9,3.9-10.2,0-14.1l-24.4-24.4l62.2-40.2l11.8,11.8c2,2,4.5,2.9,7.1,2.9s5.1-1,7.1-2.9
	c3.9-3.9,3.9-10.2,0-14.1L189.2,62.421z M95,409.321l-63.4-63.4l28-28l63.4,63.4L95,409.321z M227.2,392.221l-34.6-34.6l80.7-52.1
	l20.4,20.4L227.2,392.221z M269.6,283.921l-97.8,63.2l-33.3,21.5l-66.2-66.2l129-199.5l136.8,136.8L269.6,283.921z"/>
<path d="M302,125.721c2,2,4.5,2.9,7.1,2.9s5.1-1,7.1-2.9l59.2-59.2c3.9-3.9,3.9-10.2,0-14.1s-10.2-3.9-14.1,0l-59.2,59.2
	C298.1,115.521,298.1,121.821,302,125.721z"/>
<path d="M268.4,89.621c1.1,0.4,2.3,0.6,3.5,0.6c4.1,0,7.9-2.5,9.4-6.5l25.9-70.3c1.9-5.2-0.7-10.9-5.9-12.8
	c-5.2-1.9-10.9,0.7-12.8,5.9l-25.9,70.3C260.6,82.021,263.2,87.721,268.4,89.621z"/>
<path d="M412.7,118.921l-70.2,25.9c-5.2,1.9-7.8,7.7-5.9,12.8c1.5,4,5.3,6.5,9.4,6.5c1.1,0,2.3-0.2,3.5-0.6l70.2-25.9
	c5.2-1.9,7.8-7.7,5.9-12.8C423.7,119.721,417.9,117.021,412.7,118.921z"/>
<g>
</g>
<g>
</g>
<g>
</g>
<g>
</g>
<g>
</g>
<g>
</g>
<g>
</g>
<g>
</g>
<g>
</g>
<g>
</g>
<g>
</g>
<g>
</g>
<g>
</g>
<g>
</g>
<g>
</g>
</svg>
